<svg width="154" height="30" viewBox="0 0 154 30" fill="none" xmlns="http://www.w3.org/2000/svg">
<path d="M24.0397 7.56969L25 2H8.77492L6.12452 8.64137H9.19361L5.54835 19.097H7.61105L4.96065 25.7346L4.21162 27.8664H20.5366L21.4969 22.2967H11.1296L11.9247 17.6873H21.8541L22.8182 12.1176H12.885L13.6686 7.56969H24.0397Z" fill="url(#paint0_linear_139_697)"/>
<path d="M3.13439 10.5402L5.5428 4.50953L6.28414 4.60556L5.32001 2.30086L4.35588 0L2.84246 1.98588L1.33288 3.97176L2.2586 4.09084L0.79128 12.5913H2.60431L0 22.8204H2.60431L1.22533 29.7652L1.97436 27.6372L4.62092 20.9958H2.56206L6.20348 10.5402H3.13439Z" fill="url(#paint1_linear_139_697)"/>
<path d="M153.681 17.054V17.692H145.299C145.343 18.748 145.651 19.54 146.179 20.112C146.707 20.684 147.433 20.948 148.357 20.948C149.655 20.948 150.535 20.332 150.997 19.1L153.461 19.32C153.109 20.508 152.471 21.432 151.591 22.048C150.711 22.686 149.633 22.994 148.357 22.994C146.597 22.994 145.211 22.444 144.199 21.3C143.187 20.2 142.681 18.748 142.681 16.944C142.681 15.228 143.165 13.798 144.155 12.676C145.145 11.576 146.487 11.026 148.159 11.026C149.809 11.026 151.151 11.576 152.163 12.632C153.175 13.732 153.681 15.206 153.681 17.054ZM150.205 13.754C149.699 13.27 149.039 13.006 148.225 13.006C147.389 13.006 146.707 13.27 146.223 13.754C145.695 14.282 145.387 14.986 145.321 15.91H151.107C150.975 14.964 150.689 14.238 150.205 13.754Z" fill="url(#paint2_linear_139_697)"/>
<path d="M139.433 12.918L139.477 11.312H141.809V22.554C141.809 24.16 141.325 25.37 140.401 26.184C139.455 27.02 138.135 27.416 136.441 27.416C134.945 27.416 133.757 27.13 132.899 26.514C132.041 25.898 131.557 25.018 131.425 23.83H133.845C134.065 24.93 134.923 25.458 136.419 25.458C137.409 25.458 138.135 25.238 138.575 24.798C139.015 24.358 139.257 23.632 139.257 22.664V21.168C138.465 22.246 137.343 22.774 135.935 22.774C134.461 22.774 133.273 22.224 132.393 21.102C131.469 20.002 131.029 18.55 131.029 16.79C131.029 15.052 131.469 13.666 132.393 12.61C133.295 11.576 134.461 11.048 135.913 11.048C137.497 11.048 138.685 11.686 139.433 12.918ZM136.397 20.574C137.233 20.574 137.937 20.244 138.487 19.54C139.015 18.858 139.301 17.956 139.301 16.812C139.301 15.668 139.037 14.766 138.509 14.128C137.937 13.49 137.233 13.16 136.397 13.16C135.517 13.16 134.835 13.49 134.329 14.128C133.801 14.788 133.559 15.668 133.559 16.79C133.559 17.956 133.801 18.88 134.329 19.562C134.835 20.244 135.517 20.574 136.397 20.574Z" fill="url(#paint3_linear_139_697)"/>
<path d="M127.561 12.566V7H130.135V22.664H127.869L127.825 21.058C127.033 22.334 125.867 22.972 124.349 22.972C122.875 22.972 121.687 22.422 120.785 21.278C119.861 20.156 119.421 18.682 119.421 16.878C119.421 15.118 119.861 13.71 120.763 12.632C121.665 11.576 122.809 11.048 124.195 11.048C125.647 11.048 126.769 11.554 127.561 12.566ZM124.789 20.728C125.625 20.728 126.329 20.376 126.879 19.672C127.407 18.968 127.693 18.044 127.693 16.9C127.693 15.756 127.429 14.832 126.901 14.172C126.329 13.534 125.625 13.204 124.789 13.204C123.909 13.204 123.227 13.534 122.721 14.172C122.193 14.832 121.951 15.734 121.951 16.878C121.951 18.066 122.193 18.99 122.721 19.694C123.227 20.398 123.909 20.728 124.789 20.728Z" fill="url(#paint4_linear_139_697)"/>
<path d="M110.105 15.712V20.398H118.883V22.664H107.443V7H118.685V9.266H110.105V13.424H117.915V15.712H110.105Z" fill="url(#paint5_linear_139_697)"/>
<path d="M102.277 17.054V17.692H93.8952C93.9392 18.748 94.2472 19.54 94.7752 20.112C95.3032 20.684 96.0292 20.948 96.9532 20.948C98.2512 20.948 99.1312 20.332 99.5932 19.1L102.057 19.32C101.705 20.508 101.067 21.432 100.187 22.048C99.3072 22.686 98.2292 22.994 96.9532 22.994C95.1932 22.994 93.8072 22.444 92.7952 21.3C91.7832 20.2 91.2772 18.748 91.2772 16.944C91.2772 15.228 91.7612 13.798 92.7512 12.676C93.7412 11.576 95.0832 11.026 96.7552 11.026C98.4052 11.026 99.7472 11.576 100.759 12.632C101.771 13.732 102.277 15.206 102.277 17.054ZM98.8012 13.754C98.2952 13.27 97.6352 13.006 96.8212 13.006C95.9852 13.006 95.3032 13.27 94.8192 13.754C94.2912 14.282 93.9832 14.986 93.9172 15.91H99.7032C99.5712 14.964 99.2852 14.238 98.8012 13.754Z" fill="white"/>
<path d="M91.3733 13.248L89.0413 13.16V19.474C89.0413 19.892 89.1073 20.178 89.2833 20.332C89.4373 20.508 89.7233 20.574 90.1193 20.574H91.3733V22.664H89.3273C88.3153 22.664 87.5673 22.444 87.1273 22.004C86.6873 21.564 86.4673 20.816 86.4673 19.804V13.182L84.8393 13.248V11.312L86.4673 11.378V7.81396H89.0413V11.378L91.3733 11.312V13.248Z" fill="white"/>
<path d="M84.7398 22.664H82.1438C81.9898 22.07 81.9018 21.63 81.8578 21.344C80.9778 22.444 79.7458 22.972 78.1398 22.972C76.9518 22.972 76.0058 22.686 75.3018 22.07C74.5978 21.454 74.2678 20.64 74.2678 19.584C74.2678 17.692 75.4778 16.526 77.9198 16.108L81.4618 15.514C81.5058 15.514 81.6158 15.47 81.7698 15.426V14.436C81.7698 13.446 81.0218 12.94 79.5258 12.94C78.7998 12.94 78.2498 13.094 77.8978 13.358C77.5238 13.644 77.3038 14.084 77.2378 14.7L74.8178 14.678C75.0378 12.258 76.6218 11.026 79.5918 11.026C82.7158 11.026 84.2778 12.346 84.2778 14.942V20.046C84.2778 20.904 84.4318 21.784 84.7398 22.664ZM78.7778 21.036C79.6138 21.036 80.3398 20.794 80.9118 20.288C81.4838 19.804 81.7698 19.166 81.7698 18.418V17.23L78.6238 17.78C77.3918 18 76.7978 18.572 76.7978 19.452C76.7978 19.958 76.9738 20.354 77.3258 20.618C77.6778 20.904 78.1618 21.036 78.7778 21.036Z" fill="white"/>
<path d="M70.599 16.262L72.183 11.312H74.779L70.841 22.664H68.245L64.197 11.312H66.925L68.531 16.262L69.587 20.376L70.599 16.262Z" fill="white"/>
<path d="M64.738 17.054V17.692H56.356C56.4 18.748 56.708 19.54 57.236 20.112C57.764 20.684 58.49 20.948 59.414 20.948C60.712 20.948 61.592 20.332 62.054 19.1L64.518 19.32C64.166 20.508 63.528 21.432 62.648 22.048C61.768 22.686 60.69 22.994 59.414 22.994C57.654 22.994 56.268 22.444 55.256 21.3C54.244 20.2 53.738 18.748 53.738 16.944C53.738 15.228 54.222 13.798 55.212 12.676C56.202 11.576 57.544 11.026 59.216 11.026C60.866 11.026 62.208 11.576 63.22 12.632C64.232 13.732 64.738 15.206 64.738 17.054ZM61.262 13.754C60.756 13.27 60.096 13.006 59.282 13.006C58.446 13.006 57.764 13.27 57.28 13.754C56.752 14.282 56.444 14.986 56.378 15.91H62.164C62.032 14.964 61.746 14.238 61.262 13.754Z" fill="white"/>
<path d="M52.8396 22.664H50.2656V7H52.8396V22.664Z" fill="white"/>
<path d="M40.312 15.712V20.398H49.09V22.664H37.65V7H48.892V9.266H40.312V13.424H48.122V15.712H40.312Z" fill="white"/>
<defs>
<linearGradient id="paint0_linear_139_697" x1="22.9719" y1="27.8664" x2="-0.970097" y2="20.3225" gradientUnits="userSpaceOnUse">
<stop offset="0.264" stop-color="#D0BEEC"/>
<stop offset="1" stop-color="#9A74D4"/>
</linearGradient>
<linearGradient id="paint1_linear_139_697" x1="5.67106" y1="29.7652" x2="-2.2308" y2="29.1111" gradientUnits="userSpaceOnUse">
<stop offset="0.264" stop-color="#D0BEEC"/>
<stop offset="1" stop-color="#9A74D4"/>
</linearGradient>
<linearGradient id="paint2_linear_139_697" x1="152.608" y1="22.994" x2="140.282" y2="18.5524" gradientUnits="userSpaceOnUse">
<stop offset="0.264" stop-color="#D0BEEC"/>
<stop offset="1" stop-color="#9A74D4"/>
</linearGradient>
<linearGradient id="paint3_linear_139_697" x1="140.758" y1="27.416" x2="127.963" y2="24.1122" gradientUnits="userSpaceOnUse">
<stop offset="0.264" stop-color="#D0BEEC"/>
<stop offset="1" stop-color="#9A74D4"/>
</linearGradient>
<linearGradient id="paint4_linear_139_697" x1="129.09" y1="22.972" x2="116.403" y2="19.6354" gradientUnits="userSpaceOnUse">
<stop offset="0.264" stop-color="#D0BEEC"/>
<stop offset="1" stop-color="#9A74D4"/>
</linearGradient>
<linearGradient id="paint5_linear_139_697" x1="117.767" y1="22.664" x2="104.381" y2="18.8311" gradientUnits="userSpaceOnUse">
<stop offset="0.264" stop-color="#D0BEEC"/>
<stop offset="1" stop-color="#9A74D4"/>
</linearGradient>
</defs>
</svg>
