<svg width="137" height="38" viewBox="0 0 137 38" fill="none" xmlns="http://www.w3.org/2000/svg">
<g clip-path="url(#clip0_6_2667)">
<path d="M36.0726 11.2693H25.7746V5.54164C25.7746 2.50715 23.3114 0.0439453 20.2769 0.0439453H12.1528C11.8338 0.0439453 11.5518 0.20717 11.3812 0.452006C11.2773 0.600392 11.218 0.778455 11.218 0.971357V11.2693H5.49769C2.47062 11.2693 0 13.7325 0 16.7596V24.8912C0 25.4031 0.41548 25.8186 0.927411 25.8186H11.2254V31.5463C11.2254 34.5807 13.6886 37.0439 16.7231 37.0439H24.8472C25.3591 37.0439 25.7746 36.6285 25.7746 36.1165V25.826H31.5023C34.5368 25.826 37 23.3554 37 20.3283V12.2042C37 11.6922 36.5845 11.2768 36.0726 11.2768V11.2693ZM35.1452 20.3283C35.1452 22.3315 33.5129 23.9637 31.5097 23.9637H25.782V17.6499C25.782 15.3351 23.8975 13.4506 21.5827 13.4506C19.2679 13.4506 17.5021 15.2164 17.3908 17.4273C15.1799 17.5461 13.4141 19.3786 13.4141 21.6192C13.4141 22.5615 13.7257 23.437 14.2525 24.1418C14.4899 24.4608 14.7792 24.7502 15.0983 24.9876C15.7957 25.5144 16.6711 25.826 17.606 25.826H23.9198V35.1891H16.7231C14.7199 35.1891 13.0876 33.5569 13.0876 31.5537V24.8986C13.0876 24.676 13.006 24.4683 12.8725 24.305C12.8576 24.2828 12.8354 24.2605 12.8131 24.2383C12.6425 24.0676 12.4125 23.9637 12.1528 23.9637H1.86224V16.767C1.86224 14.7638 3.49449 13.1316 5.49769 13.1316H12.1528C12.6647 13.1316 13.0802 12.7161 13.0802 12.2042V1.90619H20.2769C22.2801 1.90619 23.9124 3.53843 23.9124 5.54164V12.2042C23.9124 12.7161 24.3279 13.1316 24.8398 13.1316H35.1378V20.3283H35.1452Z" fill="url(#paint0_linear_6_2667)"/>
</g>
<path d="M61.4277 26.0005H58.6885L57.3921 22.2786H51.5792L50.2619 26.0005H47.5646L53.0847 11.1128H55.9911L61.4277 26.0005ZM53.6284 16.4448L52.332 20.1458H56.6603L55.3848 16.4448L54.5066 13.5174L53.6284 16.4448ZM66.1067 26.335C64.6848 26.335 63.5766 26.0423 62.782 25.415C61.9875 24.7877 61.5275 23.8886 61.402 22.6968L63.6812 22.634C63.8484 23.9095 64.6848 24.5368 66.1903 24.5368C66.9012 24.5368 67.4449 24.4114 67.8422 24.1604C68.2395 23.9095 68.4486 23.5541 68.4486 23.094C68.4486 22.4249 67.9258 21.9858 66.9012 21.7767L64.7475 21.3376C62.6984 20.9194 61.6738 19.8949 61.6738 18.2848C61.6738 17.2812 62.0502 16.4657 62.8029 15.8593C63.5557 15.2529 64.5803 14.9393 65.8767 14.9393C67.1731 14.9393 68.2185 15.2529 69.0131 15.8384C69.8077 16.4448 70.2677 17.2812 70.4141 18.3685L68.1349 18.4312C67.9467 17.3021 67.1731 16.7375 65.8348 16.7375C65.2285 16.7375 64.7685 16.863 64.4339 17.0721C64.0993 17.3021 63.9321 17.6157 63.9321 18.0339C63.9321 18.6612 64.413 19.0794 65.3748 19.2885L67.5913 19.7485C68.6786 19.9994 69.4731 20.3549 69.975 20.8567C70.4768 21.3585 70.7486 22.0277 70.7486 22.8222C70.7486 23.9304 70.3304 24.7877 69.494 25.415C68.6576 26.0423 67.5285 26.335 66.1067 26.335ZM73.936 13.4965H71.4896V11.1128H73.936V13.4965ZM73.936 26.0005H71.4896V15.2111H73.936V26.0005ZM84.6801 26.0005H82.2128C82.0664 25.4359 81.9828 25.0177 81.941 24.7459C81.1046 25.7914 79.9337 26.2932 78.4073 26.2932C77.2781 26.2932 76.379 26.0214 75.7099 25.4359C75.0408 24.8505 74.7272 24.0768 74.7272 23.0731C74.7272 21.2749 75.8772 20.1667 78.1982 19.7694L81.5646 19.2049C81.6064 19.2049 81.711 19.163 81.8573 19.1212V18.1803C81.8573 17.2393 81.1464 16.7584 79.7246 16.7584C79.0345 16.7584 78.5118 16.9048 78.1773 17.1557C77.8218 17.4275 77.6127 17.8457 77.55 18.4312L75.2499 18.4103C75.459 16.1102 76.9645 14.9393 79.7873 14.9393C82.7565 14.9393 84.241 16.1939 84.241 18.6612V23.5122C84.241 24.3277 84.3874 25.1641 84.6801 26.0005ZM79.0136 24.4532C79.8082 24.4532 80.4982 24.2232 81.0419 23.7422C81.5855 23.2822 81.8573 22.6759 81.8573 21.9649V20.8358L78.8673 21.3585C77.6963 21.5676 77.1318 22.1113 77.1318 22.9477C77.1318 23.4286 77.299 23.805 77.6336 24.0559C77.9682 24.3277 78.4282 24.4532 79.0136 24.4532ZM91.4031 14.9393C92.5322 14.9393 93.4104 15.2738 94.0377 15.922C94.665 16.5912 94.9995 17.4903 94.9995 18.6403V26.0005H92.5531V19.163C92.5531 17.8039 91.9258 17.1139 90.6922 17.1139C89.9185 17.1139 89.2912 17.3857 88.8312 17.9085C88.3503 18.4312 88.1203 19.163 88.1203 20.1249V26.0005H85.6738V15.2111H88.0157L88.0575 16.7166C88.8103 15.5457 89.9185 14.9393 91.4031 14.9393ZM100.534 11.1128H106.556C108.104 11.1128 109.337 11.5101 110.216 12.3047C111.094 13.0992 111.533 14.2075 111.533 15.6502C111.533 17.1557 111.073 18.3057 110.174 19.1003C109.275 19.9158 108.02 20.3131 106.389 20.3131H103.064V26.0005H100.534V11.1128ZM103.064 18.1594H106.264C107.142 18.1594 107.832 17.9503 108.334 17.5112C108.815 17.093 109.066 16.4657 109.066 15.6711C109.066 14.8975 108.815 14.312 108.355 13.8938C107.874 13.4756 107.225 13.2665 106.389 13.2665H103.064V18.1594ZM114.583 26.0005H112.137V11.1128H114.583V26.0005ZM122.923 21.0867V15.2111H125.369V26.0005H123.027L122.985 24.495C122.233 25.6868 121.104 26.2723 119.64 26.2723C118.511 26.2723 117.612 25.9587 116.984 25.2896C116.357 24.6414 116.043 23.7422 116.043 22.5713V15.2111H118.49V22.0486C118.49 23.4286 119.096 24.0977 120.351 24.0977C121.104 24.0977 121.731 23.8468 122.212 23.3241C122.672 22.8013 122.923 22.0486 122.923 21.0867ZM130.93 26.335C129.508 26.335 128.4 26.0423 127.605 25.415C126.811 24.7877 126.351 23.8886 126.225 22.6968L128.504 22.634C128.672 23.9095 129.508 24.5368 131.013 24.5368C131.724 24.5368 132.268 24.4114 132.665 24.1604C133.063 23.9095 133.272 23.5541 133.272 23.094C133.272 22.4249 132.749 21.9858 131.724 21.7767L129.571 21.3376C127.522 20.9194 126.497 19.8949 126.497 18.2848C126.497 17.2812 126.873 16.4657 127.626 15.8593C128.379 15.2529 129.403 14.9393 130.7 14.9393C131.996 14.9393 133.042 15.2529 133.836 15.8384C134.631 16.4448 135.091 17.2812 135.237 18.3685L132.958 18.4312C132.77 17.3021 131.996 16.7375 130.658 16.7375C130.052 16.7375 129.592 16.863 129.257 17.0721C128.922 17.3021 128.755 17.6157 128.755 18.0339C128.755 18.6612 129.236 19.0794 130.198 19.2885L132.414 19.7485C133.502 19.9994 134.296 20.3549 134.798 20.8567C135.3 21.3585 135.572 22.0277 135.572 22.8222C135.572 23.9304 135.154 24.7877 134.317 25.415C133.481 26.0423 132.352 26.335 130.93 26.335Z" fill="white"/>
<defs>
<linearGradient id="paint0_linear_6_2667" x1="0" y1="18.5477" x2="37" y2="18.5477" gradientUnits="userSpaceOnUse">
<stop stop-color="#3D83C3"/>
<stop offset="1" stop-color="#00B4C3"/>
</linearGradient>
<clipPath id="clip0_6_2667">
<rect width="37" height="37.0074" fill="white" transform="translate(0 0.0439453)"/>
</clipPath>
</defs>
</svg>
