<svg width="150" height="37" viewBox="0 0 150 37" fill="none" xmlns="http://www.w3.org/2000/svg">
<path d="M14.8726 12.1164H10.5244L16.5634 10.4289L27 0L5.1604 6.64708L0.492896 13.4655L3.75029 21.3246H8.93427L12.7917 18.6863L0 36.7517L24.5312 19.9755L21.2738 12.1164H14.8726Z" fill="#26FFCB"/>
<path d="M52.8116 17.9498C54.7143 18.5353 55.6762 19.7689 55.6762 21.6508C55.6762 22.9681 55.2371 24.0136 54.3589 24.8082C53.4807 25.6027 52.2888 26 50.7833 26H43.8831V11.1123H50.6997C52.0379 11.1123 53.1252 11.4469 53.9198 12.0951C54.7143 12.7433 55.1116 13.6215 55.1116 14.7506C55.1116 16.3607 54.338 17.427 52.8116 17.9498ZM50.3024 13.2242H46.4132V17.1343H50.156C50.9506 17.1343 51.5361 16.967 51.9543 16.6116C52.3725 16.277 52.5815 15.7752 52.5815 15.127C52.5815 13.8724 51.8079 13.2242 50.3024 13.2242ZM46.4132 23.8463H50.4488C51.327 23.8463 51.9961 23.6581 52.4561 23.2399C52.9161 22.8426 53.167 22.2572 53.167 21.5044C53.167 19.9989 52.2679 19.2253 50.5115 19.2253H46.4132V23.8463ZM62.2459 14.8761C62.4759 14.8761 62.7059 14.897 62.9359 14.9388V17.2598C62.5177 17.2389 62.2877 17.218 62.2877 17.218C61.4095 17.218 60.7195 17.5107 60.1967 18.0752C59.674 18.6398 59.4022 19.4344 59.4022 20.438V26H56.9557V15.2106H59.2976L59.2558 17.1761C59.8204 15.6497 60.824 14.8761 62.2459 14.8761ZM72.4129 26H69.9455C69.7992 25.4354 69.7155 25.0172 69.6737 24.7454C68.8373 25.7909 67.6664 26.2927 66.14 26.2927C65.0109 26.2927 64.1117 26.0209 63.4426 25.4354C62.7735 24.85 62.4599 24.0763 62.4599 23.0727C62.4599 21.2744 63.6099 20.1662 65.9309 19.7689L69.2973 19.2044C69.3392 19.2044 69.4437 19.1625 69.5901 19.1207V18.1798C69.5901 17.2389 68.8791 16.7579 67.4573 16.7579C66.7673 16.7579 66.2445 16.9043 65.91 17.1552C65.5545 17.427 65.3454 17.8452 65.2827 18.4307L62.9826 18.4098C63.1917 16.1097 64.6972 14.9388 67.52 14.9388C70.4892 14.9388 71.9738 16.1934 71.9738 18.6607V23.5118C71.9738 24.3272 72.1201 25.1636 72.4129 26ZM66.7464 24.4527C67.5409 24.4527 68.2309 24.2227 68.7746 23.7418C69.3182 23.2817 69.5901 22.6754 69.5901 21.9644V20.8353L66.6 21.3581C65.429 21.5672 64.8645 22.1108 64.8645 22.9472C64.8645 23.4281 65.0318 23.8045 65.3663 24.0554C65.7009 24.3272 66.1609 24.4527 66.7464 24.4527ZM79.1358 14.9388C80.2649 14.9388 81.1431 15.2734 81.7704 15.9216C82.3977 16.5907 82.7323 17.4898 82.7323 18.6398V26H80.2858V19.1625C80.2858 17.8034 79.6585 17.1134 78.4249 17.1134C77.6512 17.1134 77.0239 17.3852 76.5639 17.908C76.083 18.4307 75.853 19.1625 75.853 20.1244V26H73.4066V15.2106H75.7484L75.7903 16.7161C76.543 15.5452 77.6512 14.9388 79.1358 14.9388ZM91.3248 16.4025V11.1123H93.7712V26H91.6176L91.5757 24.4736C90.823 25.6864 89.7148 26.2927 88.272 26.2927C86.8711 26.2927 85.7419 25.77 84.8846 24.6827C84.0064 23.6163 83.5883 22.2154 83.5883 20.5008C83.5883 18.828 84.0064 17.4898 84.8637 16.4652C85.721 15.4615 86.8083 14.9597 88.1256 14.9597C89.5057 14.9597 90.5721 15.4406 91.3248 16.4025ZM88.6902 24.16C89.4848 24.16 90.1539 23.8254 90.6766 23.1563C91.1785 22.4872 91.4503 21.609 91.4503 20.5217C91.4503 19.4344 91.1994 18.5562 90.6975 17.9289C90.1539 17.3225 89.4848 17.0089 88.6902 17.0089C87.8538 17.0089 87.2056 17.3225 86.7247 17.9289C86.2229 18.5562 85.9929 19.4135 85.9929 20.5008C85.9929 21.6299 86.2229 22.5081 86.7247 23.1772C87.2056 23.8463 87.8538 24.16 88.6902 24.16ZM104.862 26.3973C102.959 26.3973 101.475 25.9582 100.408 25.08C99.342 24.2018 98.7566 22.9472 98.6729 21.2744H101.14C101.287 23.3236 102.541 24.3272 104.883 24.3272C105.929 24.3272 106.723 24.139 107.288 23.7418C107.852 23.3445 108.145 22.7799 108.145 22.0481C108.145 21.4626 107.936 21.0026 107.518 20.6471C107.1 20.3126 106.409 20.0198 105.448 19.8107L103.022 19.2462C100.408 18.6607 99.112 17.3225 99.112 15.2315C99.112 13.977 99.572 12.9106 100.534 12.0324C101.454 11.196 102.792 10.7778 104.528 10.7778C106.242 10.7778 107.601 11.196 108.647 12.0324C109.671 12.8687 110.236 14.0188 110.361 15.4825H107.915C107.81 14.6461 107.455 13.9979 106.869 13.5379C106.284 13.0778 105.489 12.8478 104.507 12.8478C103.587 12.8478 102.876 13.0569 102.374 13.4333C101.851 13.8097 101.6 14.3324 101.6 14.9806C101.6 15.9843 102.311 16.6325 103.754 16.9252L106.556 17.5734C109.316 18.2216 110.717 19.6435 110.717 21.839C110.717 23.2399 110.194 24.3481 109.17 25.1636C108.145 26 106.702 26.3973 104.862 26.3973ZM117.283 14.9597C118.58 14.9597 119.667 15.4615 120.545 16.4443C121.382 17.448 121.821 18.7862 121.821 20.4589C121.821 22.1944 121.382 23.5954 120.545 24.6618C119.688 25.7491 118.559 26.2927 117.137 26.2927C115.841 26.2927 114.816 25.8118 114.084 24.85V30.2656H111.638V15.2106H113.791L113.833 16.7579C114.565 15.5661 115.715 14.9597 117.283 14.9597ZM116.719 24.16C117.513 24.16 118.162 23.8254 118.663 23.1563C119.165 22.4872 119.416 21.5881 119.416 20.4589C119.416 19.3926 119.165 18.5562 118.684 17.9289C118.203 17.3225 117.555 17.0089 116.719 17.0089C115.882 17.0089 115.234 17.3225 114.732 17.9289C114.21 18.5562 113.959 19.4135 113.959 20.5217C113.959 21.6508 114.21 22.529 114.732 23.1563C115.234 23.8254 115.882 24.16 116.719 24.16ZM131.934 26H129.467C129.321 25.4354 129.237 25.0172 129.195 24.7454C128.359 25.7909 127.188 26.2927 125.661 26.2927C124.532 26.2927 123.633 26.0209 122.964 25.4354C122.295 24.85 121.981 24.0763 121.981 23.0727C121.981 21.2744 123.131 20.1662 125.452 19.7689L128.819 19.2044C128.861 19.2044 128.965 19.1625 129.111 19.1207V18.1798C129.111 17.2389 128.401 16.7579 126.979 16.7579C126.289 16.7579 125.766 16.9043 125.431 17.1552C125.076 17.427 124.867 17.8452 124.804 18.4307L122.504 18.4098C122.713 16.1097 124.219 14.9388 127.041 14.9388C130.011 14.9388 131.495 16.1934 131.495 18.6607V23.5118C131.495 24.3272 131.642 25.1636 131.934 26ZM126.268 24.4527C127.062 24.4527 127.752 24.2227 128.296 23.7418C128.84 23.2817 129.111 22.6754 129.111 21.9644V20.8353L126.121 21.3581C124.95 21.5672 124.386 22.1108 124.386 22.9472C124.386 23.4281 124.553 23.8045 124.888 24.0554C125.222 24.3272 125.682 24.4527 126.268 24.4527ZM138.218 14.8761C138.448 14.8761 138.678 14.897 138.908 14.9388V17.2598C138.49 17.2389 138.26 17.218 138.26 17.218C137.382 17.218 136.692 17.5107 136.169 18.0752C135.646 18.6398 135.374 19.4344 135.374 20.438V26H132.928V15.2106H135.27L135.228 17.1761C135.793 15.6497 136.796 14.8761 138.218 14.8761ZM149.176 26H146.29L143.028 20.8353L141.711 22.1108V26H139.265V11.1123H141.711V19.518L145.914 15.2106H148.988L144.722 19.3298L149.176 26Z" fill="white"/>
</svg>
